<svg xmlns:xlink="http://www.w3.org/1999/xlink" xmlns="http://www.w3.org/2000/svg" width="890.5000000000001" height="119.6090533883681" viewBox="0 0 268.02318964859916 36" class="looka-1j8o68f"><defs id="SvgjsDefs3680"></defs><g id="SvgjsG3681" featurekey="nameLeftFeature-0" transform="matrix(2.475928317277849,0,0,2.475928317277849,-0.19807466679119964,-13.865199521247652)" fill="#000000"><path d="M8.72 17.52 l-4.5 0 l-0.88 2.48 l-3.26 0 l4.9 -12.24 l3 0 l4.9 12.24 l-3.28 0 z M5.2 14.74 l2.54 0 l-1.26 -3.56 z M21.439999999999998 16.7 l0 3 c-1.02 0.34 -2.08 0.44 -3.14 0.44 c-3.1 0 -5.3 -2.06 -5.3 -5.12 c0 -3.18 2.28 -5.12 5.3 -5.12 c1.06 0 2.12 0.1 3.14 0.44 l0 3 c-0.88 -0.46 -1.98 -0.58 -2.96 -0.58 c-0.66 0 -1.46 0.14 -1.92 0.66 c-0.42 0.42 -0.56 1.02 -0.56 1.58 c0 0.32 0.04 0.62 0.14 0.88 c0.08 0.28 0.22 0.52 0.42 0.72 c0.44 0.54 1.26 0.68 1.92 0.68 c0.88 0 2.18 -0.16 2.96 -0.58 z M28.76 10.34 l0 2.78 l-2.8 0 l0 1.88 c0 1.54 1.02 2.32 2.5 2.32 c0.18 0 0.34 -0.02 0.48 -0.04 s0.26 -0.04 0.4 -0.06 l0 2.78 c-0.18 0.02 -0.32 0.06 -0.42 0.08 c-0.12 0.02 -0.32 0.02 -0.58 0.02 c-3.02 0 -5.38 -2.06 -5.38 -5.1 l0 -7.4 l3 0 l0 2.74 l2.8 0 z M30.42 10 l3 0 l0 10 l-3 0 l0 -10 z M31.92 9.06 c-1.02 0 -1.74 -0.72 -1.74 -1.74 c0 -1.04 0.72 -1.72 1.74 -1.72 c1.04 0 1.72 0.68 1.72 1.72 c0 1.06 -0.66 1.74 -1.72 1.74 z M45.620000000000005 10 l-4.1 10 l-3 0 l-4.1 -10 l2.98 0 c0.44 1.14 0.88 2.26 1.32 3.4 c0.42 1.14 0.86 2.26 1.3 3.4 c0.44 -1.14 0.88 -2.26 1.32 -3.4 c0.42 -1.14 0.86 -2.26 1.3 -3.4 l2.98 0 z M48.760000000000005 13.8 c0.3 0.1 0.64 0.18 1 0.22 c0.36 0.06 0.7 0.08 1.02 0.08 c0.4 0 1.42 -0.08 1.42 -0.66 c0 -0.62 -0.88 -0.64 -1.32 -0.64 c-0.88 0 -1.64 0.2 -2.12 1 z M54.42 16.88 l0 2.8 c-1.12 0.26 -2.24 0.44 -3.4 0.44 c-3.18 0 -5.54 -1.86 -5.54 -5.08 c0 -3.18 2.28 -5.14 5.3 -5.14 c2.06 0 4.44 0.98 4.44 3.32 c0 2.32 -2.52 3.18 -4.46 3.18 c-0.74 0 -1.48 -0.2 -2.16 -0.48 c0.4 1.12 1.6 1.3 2.64 1.3 c0.54 0 1.08 -0.02 1.62 -0.1 c0.5 -0.04 1.08 -0.1 1.56 -0.24 z"></path></g><g id="SvgjsG3682" featurekey="nameRightFeature-0" transform="matrix(2.085747595646471,0,0,2.085747595646471,137.49710228848707,-6.799537639197234)" fill="#FF4438"><path d="M8.54 17.22 l-0.7 -2.02 q-1.04 0 -2.1 -0.32 q-0.22 1.28 -0.22 1.84 q0 1.94 0.6 2.9 q-1.2 0.9 -2.5 0.9 t-1.86 -0.75 t-0.56 -2.24 t1.26 -8.45 l-1.06 -2.14 q2.24 -1.44 4.12 -1.44 q1.44 0 2.22 0.6 q1.5 -0.6 2.7 -0.6 q1.84 0 2.92 1.24 t1.08 2.98 q0 1.3 -0.66 2.51 t-1.94 1.97 q0.68 1.94 1.53 3.34 t1.69 1.86 q-0.42 0.44 -1.29 0.77 t-1.57 0.33 q-1.36 0 -2.18 -0.69 t-1.48 -2.59 z M6.62 12.7 q1.6 0 2.49 -0.82 t0.89 -1.76 t-0.52 -1.5 t-1.48 -0.56 q-0.52 0 -1.04 0.14 q-0.64 3.82 -0.8 4.48 q0.14 0.02 0.46 0.02 z M21.28 20.5 q-2.74 0 -4.23 -1.42 t-1.49 -3.84 q0 -3.22 2.21 -5.23 t5.55 -2.01 q1.86 0 2.82 0.83 t0.96 2.19 q0 1.86 -1.81 3.09 t-5.59 1.25 q0.06 1.28 0.58 2.01 t1.3 0.73 t1.35 -0.52 t0.57 -1.7 q2.92 0 2.92 1.38 q0 1.18 -1.44 2.21 t-3.7 1.03 z M22.98 10.34 q-1.02 0 -1.87 1.02 t-1.23 2.4 q2 -0.16 3.01 -0.91 t1.01 -1.59 q0 -0.4 -0.25 -0.66 t-0.67 -0.26 z M36.44 18.54 l-0.2 -0.1 q-1.56 2.06 -3.72 2.06 q-1.6 0 -2.71 -1.27 t-1.11 -3.43 q0 -2.68 1.88 -4.88 q0.92 -1.08 2.46 -1.75 t3.44 -0.67 q0.36 0 1.28 0.08 q0.04 -0.42 0.18 -1.02 l-1.12 -1.6 q2.5 -1.46 3.94 -1.46 q0.82 0 1.16 0.33 t0.34 1.24 t-0.89 5.13 t-0.89 5.99 t0.62 2.33 q-1.12 0.98 -2.33 0.98 t-1.77 -0.61 t-0.56 -1.35 z M32.46 15.04 q0 1.14 0.59 1.8 t1.47 0.66 q1.14 0 2.08 -1.08 q0.32 -3.56 0.9 -6.16 q-2.3 0 -3.67 1.48 t-1.37 3.3 z M49.52 6.15 q-0.8 0.55 -1.82 0.55 t-1.61 -0.4 t-0.59 -1.08 q0 -0.92 0.86 -1.44 t1.82 -0.52 t1.55 0.4 t0.59 1.17 t-0.8 1.32 z M44.620000000000005 19.88 q-0.56 -0.62 -0.56 -1.89 t1.28 -6.81 l-1.12 -1.68 q2.5 -1.5 3.94 -1.5 q0.82 0 1.16 0.35 t0.34 1.13 q0 0.3 -0.74 3.52 t-0.74 4.6 t0.62 1.92 q-1.12 0.98 -2.37 0.98 t-1.81 -0.62 z M58 10.66 q-0.74 0.22 -1.18 0.63 t-0.78 1.17 q3.38 0.5 4.76 1.44 t1.38 2.68 q0 1.1 -0.62 1.91 t-1.56 1.23 q-1.84 0.78 -3.62 0.78 q-5.06 0 -5.06 -2.18 q0 -1.1 0.98 -2.2 q0.5 0.7 1.51 1.2 t1.97 0.5 q1.66 0 2 -1.46 q-3.04 -0.36 -4.4 -1.36 t-1.36 -2.82 q0 -1.44 0.95 -2.42 t2.36 -1.37 t3.18 -0.39 t2.92 0.67 t1.15 1.63 t-0.67 1.48 t-1.46 0.52 t-1.44 -0.42 t-1.01 -1.22 z" fill="#FF4438"></path></g></svg>